<?xml version="1.0" encoding="utf-8"?>
<!-- Generator: Adobe Illustrator 25.2.2, SVG Export Plug-In . SVG Version: 6.00 Build 0)  -->
<svg version="1.1" id="Calque_1" xmlns="http://www.w3.org/2000/svg" xmlns:xlink="http://www.w3.org/1999/xlink" x="0px" y="0px"
	 viewBox="0 0 25.8 38.9" style="enable-background:new 0 0 25.8 38.9;" xml:space="preserve">
<style type="text/css">
	.st0{fill:none;stroke:#306000;stroke-width:0.75;stroke-miterlimit:10;}
</style>
<g id="C" transform="translate(-232.51 -197.13)">
	<circle id="Ellipse_4" class="st0" cx="235.5" cy="233" r="3"/>
	<path id="Tracé_491" class="st0" d="M258.3,235.6L258.3,235.6c0,0-3.8-1-4.9-3.9l-3-8.1l-0.3-0.8l-0.1-0.3l-0.3-0.9l-4.6-12.3
		h-0.3l-3.9,10.5l0.1,0.2l2.2-5.9l3.1,8.4l0.3,0.9l0.1,0.3l0.3,0.9l2.7,7.2c0.9,2.4-1.9,3.9-1.9,3.9l0,0v0.2h10.4L258.3,235.6
		L258.3,235.6L258.3,235.6z"/>
	<path id="Tracé_492" class="st0" d="M254.8,218l-0.4-0.2c-0.7,1.7-1.9,3.2-3.5,4.2l0.1,0.3C252.7,221.3,254,219.8,254.8,218z"/>
	<path id="Tracé_493" class="st0" d="M237.6,210.4c0-5.3,0.8-13,8-13c0.7,0,1.5,0.1,2.2,0.2c0.6,0.1,1.2,0.3,1.7,0.6
		c0.5,0.2,0.9,0.6,1.3,0.9c0.1,0.1,0.2,0.2,0.3,0.3c0.1,0.1,0.2,0.2,0.3,0.4c0.1,0.2,0.1,0.4,0.1,0.5c0,0.3-0.1,0.6-0.2,0.9
		c-0.2,0.4-0.4,0.8-0.8,1c-1.3,0.8-2.4,1.3-2.4,3.1c0,1.8,1.4,3.2,3.2,3.2c1.7,0,3-1.3,3.2-2.9c0-0.2,0-0.4,0-0.6
		c0-4.7-4-7.9-8.9-7.9c-8.4,0-13.1,5.6-13.1,13.3c0,7.7,5.6,13.2,13.3,13.3l-0.1-0.3C239.3,223.2,237.6,215.7,237.6,210.4z"/>
</g>
</svg>
