<svg xmlns="http://www.w3.org/2000/svg" width="25.832" height="38.859" viewBox="0 0 25.832 38.859">
  <g id="C" transform="translate(-232.51 -197.13)">
    <circle id="Ellipse_4" data-name="Ellipse 4" cx="2.99" cy="2.99" r="2.99" transform="translate(232.51 230.009)" fill="#306000"/>
    <path id="Tracé_491" data-name="Tracé 491" d="M325.029,330.6h0s-3.771-.967-4.863-3.906l-3.007-8.081-.293-.792-.119-.319-.323-.871-4.591-12.349h-.261l-3.872,10.5.126.2L310,309.08l3.134,8.406.325.871.1.27.32.859,2.687,7.208c.911,2.448-1.922,3.9-1.922,3.9h0v.188h10.385v-.19h0Z" transform="translate(-66.687 -95.033)" fill="#306000"/>
    <path id="Tracé_492" data-name="Tracé 492" d="M399.208,380.133l-.384-.163a8.555,8.555,0,0,1-3.474,4.188l.137.334A9.3,9.3,0,0,0,399.208,380.133Z" transform="translate(-144.425 -162.163)" fill="#306000"/>
    <path id="Tracé_493" data-name="Tracé 493" d="M237.589,210.381c0-5.334.768-13.034,8.029-13.034a9.792,9.792,0,0,1,2.193.235,7.338,7.338,0,0,1,1.745.632,5.8,5.8,0,0,1,1.3.918c.113.107.226.226.329.339a1.212,1.212,0,0,1,.257.38,1.752,1.752,0,0,1,.089.541,2.4,2.4,0,0,1-.172.934,2.123,2.123,0,0,1-.805,1c-1.282.822-2.413,1.337-2.413,3.129a3.179,3.179,0,0,0,6.349.226,5.471,5.471,0,0,0,.036-.634c0-4.729-4.015-7.916-8.91-7.916-8.412,0-13.089,5.61-13.089,13.254,0,7.738,5.643,13.231,13.317,13.251l-.1-.276C239.322,223.238,237.589,215.675,237.589,210.381Z" transform="translate(-0.018)" fill="#306000"/>
  </g>
</svg>
