<svg xmlns="http://www.w3.org/2000/svg" width="1453.4" height="258.654" viewBox="0 0 1453.4 258.654">
  <path id="Tracé_538" data-name="Tracé 538" d="M-697.215-26.051h7.027v-93.406h-14.054v93.406Zm0-119.457h7.027v-62.9h-14.054v62.9Zm14.054,119.457h7.027v-93.406h-14.054v93.406Zm0-119.457h7.027v-62.9h-14.054v62.9Zm68.726-33.42h7.027V-180.3q0-19.367-12.768-30.25t-39.676-10.883h-16.282v13.025h21.081q16.453,0,25.108,7.541t8.655,20.566v1.371Zm-54.844,165.9h8.912q34.792,0,52.53-16.025t17.739-40.7v-1.714h-13.882v1.885q0,20.4-14.482,31.964t-41.9,11.569h-15.768v13.025Zm68.555-165.9h6.855v-2.4q-.343-23.309-17.91-38.219t-45.846-14.911h-18.51v13.025h16.282q26.908,0,39.676,10.883t12.768,30.25v1.371ZM-669.279,0h13.54q37.191,0,58.443-18.767t21.252-51.673v-1.028H-590.1v1.714q0,24.68-17.739,40.7t-52.53,16.025h-15.768V0Zm0-119.457h16.625v-13.025h-23.48v13.025Zm0-13.025h16.625v-13.025h-23.48v13.025Zm51.93-10.969a24.443,24.443,0,0,0,8.312-13.282,69.313,69.313,0,0,0,1.628-14.825V-175.5h-13.882v5.142q0,5.313-.086,6.256t-1.285,6.256l-3.6,4.285v15.082Zm20.4,68.555h6.855V-76.61q0-15.6-7.113-27.165t-20.652-18.6l-8.4-4.456v13.711l5.656,3.942a40.1,40.1,0,0,1,12.6,13.968q4.028,7.8,4.028,18.938V-74.9Zm-10.969-60.671a30.163,30.163,0,0,0,11.312-17.481,96.746,96.746,0,0,0,2.742-20.738V-175.5h-13.54v3.771a70.09,70.09,0,0,1-1.628,15,24.443,24.443,0,0,1-8.312,13.282l-8.912,4.97,6.684,2.742,6.855,2.914ZM-583.071-74.9h7.027V-76.61a60.611,60.611,0,0,0-9.426-32.735q-9.426-15.082-22.623-21.423l-4.627-2.057-6.855,3.085-6.684,2.914,8.4,4.456q13.54,7.027,20.652,18.6t7.113,26.993V-74.9Zm-31.364-100.6h7.027v-1.714h-13.882v1.714Zm0-1.714h7.027v-1.714h-13.882v1.714Zm17.481,105.746h6.855v-1.714h-13.882v1.714Zm0-1.714h6.855V-74.9h-13.882v1.714ZM-600.724-175.5h6.855v-1.714h-13.54v1.714Zm0-1.714h6.855v-1.714h-13.54v1.714Zm17.653,105.746h7.027v-1.714H-590.1v1.714Zm0-1.714h7.027V-74.9H-590.1v1.714Zm-114.144-46.274h7.027v-13.025h-14.054v13.025Zm0-13.025h7.027v-13.025h-14.054v13.025Zm14.054,13.025h7.027v-13.025h-14.054v13.025Zm0-13.025h7.027v-13.025h-14.054v13.025ZM-704.756-.857Q-696.7-2.571-694.9-4.37a10.137,10.137,0,0,0,2.485-5.4l.514-3.256h-15.082l-4.627,6.513-8.569,8.4Zm5.656-12.168h7.2l1.371-10.969.171-2.057h-13.882l-1.028,6.17-1.714,6.855ZM-676.477,0h.343V-13.025h-12.34l.514,3.428q.857,5.656,3.171,7.627T-676.477,0Zm-6.684-13.025h7.027V-26.051h-14.054l.171,2.057,1.542,10.969Zm-14.054-193.667h6.855l-.171-2.057-1.2-10.969h-15.253l1.714,6.855,1.028,6.17Zm-1.885-13.025h7.37l-.343-2.914a7.658,7.658,0,0,0-2.4-5.484q-2.228-2.057-10.283-3.771l-15.425-2.742,8.569,8.4,4.627,6.513Zm15.939,13.025h7.027v-13.025H-689.16l-.857,10.969-.171,2.057Zm0-13.025h7.027v-13.025h-.343q-22.28-3.256-17.567.171a11.635,11.635,0,0,1,5.056,9.083l-.171,3.771Zm37.705,100.6,6.855.686v-14.054h-14.054v13.025Zm-.171-13.368h7.027v-14.054l-7.027.686-7.027.343v13.025Zm12.854,15.939,6.513,3.428v-13.711l-5.656-2.571-6.684-3.085v14.054Zm.857-19.2,5.656-2.742v-15.082l-6.341,4.285-6,2.742v14.054Zm0,6.341,5.656,2.571,6.341-2.742,7.2-3.256-7.2-3.085-6.341-2.571-5.656,2.742-6.684,3.256Zm148.654,87.579h114.486l-2.571-5.827-2.571-5.827H-495.431L-498-47.646l-2.571,5.827Zm0-11.654h109.345l-2.571-5.827-2.571-5.827h-111.23L-492.86-59.3l-2.571,5.827Zm-1.885-70.44,6,2.742,2.057-4.97q13.54-30.85,20.138-45.932t12.083-26.908l4.113-9.426h-13.882l-2.057,4.456q-3.771,8.055-9.94,22.623t-21.595,49.017l-2.571,6Zm11.826,5.313,5.656,2.742,2.742-6.341q13.711-31.364,19.881-44.989t9.255-20.823l1.885-4.456-3.428-7.712-3.428-8.227-4.113,9.426q-5.484,11.826-12.083,26.908t-20.138,45.932l-2.057,4.97Zm90.835-4.97,5.827-2.571-2.057-4.627q-12.683-28.793-19.024-43.447t-13.368-29.907l-2.057-4.285h-13.711l5.313,12.168q6,13.54,12.168,28.45t18.338,41.99l2.228,4.97ZM-395-118.257l6.17-2.571-2.228-4.97q-12.168-27.079-18.338-41.99t-12.168-28.45l-5.313-12.168-3.771,8.055-3.256,7.884,1.885,4.456q3.256,7.37,9,21.423t19.624,45.932l2.228,5.142Zm-52.616-90.149h6.855l3.428-6,3.428-6.341h-15.253l-2.742,6.17-2.742,6.17Zm5.827-12.34h7.884v-13.711h-9.255l-2.914,6.684-3.085,7.027Zm4.456,20.566,3.428,7.712,3.428-7.884,3.6-8.055-3.256-5.827-3.771-6.513-3.428,6.341-3.428,6Zm17.139-8.227h7.027l-2.742-6.17-2.742-6.17H-433.9l3.771,6.513,3.256,5.827Zm-5.827-12.34h7.37l-3.085-7.027-2.914-6.684H-433.9v13.711Zm-89.464,197.78-5.656-2.571-.686,1.2-1.371,3.085,4.113,6.684,4.627,5.827,2.228-5.827,2.571-5.827Zm-3.6,8.4-4.113-6.684.171-.171q-4.8,10.969-4.456,16.367t5.313,9.512l6,4.627,1.714-17.824Zm-7.884-13.54-5.827-2.571-2.571,5.827-1.714,3.942,6.341,1.2,7.541-1.542,1.371-3.085.686-1.2Zm-3.771,8.4-6.341-1.2-.514.514L-552.16-6.855l7.2,1.371q8.227,1.542,12.94-2.314t9-13.625l-.171.171Zm57.586-98.89-5.827-2.571-2.571,5.827-2.571,5.827,5.827,2.571,5.827,2.571,2.571-5.827,2.571-5.827Zm-5.142,11.654-5.827-2.571-2.4,5.827-2.571,5.656,5.656,2.571,5.827,2.571,2.571-5.827,2.571-5.656Zm-6.341-16.8-5.827-2.571-2.571,5.827-2.571,5.827,5.827,2.571,5.656,2.571,2.571-5.827,2.571-5.827Zm-5.142,11.654-5.827-2.571-2.571,5.827-2.571,5.656,5.827,2.571,5.827,2.571,2.571-5.656,2.4-5.827Zm6.341,16.625-5.656-2.571-2.571,5.827q-2.571,5.827-4.113,9.169t-9.6,21.68q-7.712,17.31-9.169,20.566t-4.028,9.255l-2.571,6,5.656,2.571,5.827,2.571,2.742-6q2.571-6,4.028-9.169t9.169-20.652q7.884-18,9.426-21.509t4.113-9.341l2.571-5.827Zm-11.483-5.142-5.827-2.571-2.571,5.827q-2.571,5.827-4.028,9.169t-9.683,21.68q-7.541,17.31-9,20.566t-4.2,9.255l-2.571,6,5.827,2.571,5.827,2.571,2.571-6q2.571-6,4.028-9.169t9.169-20.652q7.884-18,9.512-21.509t4.2-9.341l2.571-5.827Zm153.905,73.011-6,2.571.514,1.2,1.371,3.085,7.884,1.542,6.855-1.542L-332.1-24.68l-2.571-5.656Zm3.771,8.4-7.884-1.542L-343.582-18q3.771,8.4,8.741,12.683t11.826-.514l5.827-4.627-11.483-8.055-1.714-2.228Zm-15.939-3.256-6,2.742,2.571,5.827,2.228,6,4.97-6,4.285-6.855-1.371-3.085-.514-1.2Zm3.771,8.569-4.97,6L-352.152,9.6l6-4.627q4.97-4.113,5.57-8.655T-344.1-17.653l-1.028-3.085Zm-23.137-86.379-6.17,2.571,2.571,5.827q2.571,6,4.113,9.341t9.426,21.852q7.541,17.31,9,20.481t4.028,9.169l2.571,6,6.17-2.742,6.17-2.571-2.571-6q-2.742-6-4.113-9.169t-8.912-20.652q-7.884-18-9.426-21.509t-4.113-9.512L-366.377-103Zm-12.168,5.313-6.17,2.742,2.571,5.656q2.571,6,4.028,9.426t9.512,21.766q7.541,17.31,8.912,20.481t4.113,9.169l2.571,6,6-2.742,6.17-2.571-2.571-6q-2.571-6-3.942-9.169t-9.083-20.481q-7.884-18.167-9.426-21.68t-4.113-9.512l-2.571-5.827Zm2.057-28.622-6.17,2.742,2.571,5.827,2.571,5.656,6.17-2.571,6-2.742-2.4-5.827-2.571-5.827Zm5.142,11.654-6.17,2.571,2.571,5.827,2.4,5.827,6.17-2.571,6.17-2.742-2.571-5.827-2.571-5.827ZM-395-118.257l-6,2.742,2.571,5.827,2.4,5.827,6.17-2.742,6.17-2.742L-386.258-115l-2.571-5.827Zm5.142,11.654-6.17,2.742,2.571,5.827,2.571,5.827,6.17-2.742,6-2.742-2.4-5.827-2.571-5.827ZM-237.432,0h28.622q41.3,0,76.524-26.051t41.561-70.611l.686-7.541h-14.225l-.686,6.684q-6,37.362-36.248,60.928t-67.783,23.566h-35.134V0Zm0-13.025h28.45q37.534,0,67.783-23.566t36.248-60.928l.686-6.684h-14.911l-.686,6.17q-5.142,31.021-30.25,51.5t-62.128,20.481h-31.878v13.025ZM-96.724-130.254h6.684l-.686-6.684q-5.656-42.847-38.562-70.183t-79.523-27.336h-35.306v13.025h35.134a103.619,103.619,0,0,1,67.1,23.823,102.415,102.415,0,0,1,36.934,60.842l.857,6.513Zm-14.568,0h7.2l-.857-6.513a102.415,102.415,0,0,0-36.934-60.842,103.619,103.619,0,0,0-67.1-23.823h-35.134v13.025h31.878q36.334,0,61.014,20.138t30.85,51.844l1.2,6.17ZM-265.2-104.2h7.027v-13.025h-14.054V-104.2Zm0-13.025h7.027v-13.025h-14.054v13.025Zm14.054,13.025h7.027v-13.025H-258.17V-104.2Zm0-13.025h7.027v-13.025H-258.17v13.025ZM-265.2-130.254h7.027v-78.152h-14.054v78.152Zm14.054,0h7.027v-78.152H-258.17v78.152ZM-265.2-26.051h7.027V-104.2h-14.054v78.152Zm14.054,0h7.027V-104.2H-258.17v78.152ZM-265.2-206.692h6.855l-.171-2.057-1.2-10.969h-15.253l1.714,6.855,1.028,6.17Zm-1.885-13.025h7.37l-.343-2.914a7.658,7.658,0,0,0-2.4-5.484q-2.228-2.057-10.283-3.771l-15.425-2.742,8.569,8.4,4.627,6.513Zm15.939,13.025h7.027v-13.025h-13.025L-258-208.749l-.171,2.057Zm0-13.025h7.027v-13.025h-.343q-22.28-3.256-17.567.171a11.635,11.635,0,0,1,5.056,9.083l-.171,3.771ZM-272.738-.857q8.055-1.714,9.855-3.513a10.137,10.137,0,0,0,2.485-5.4l.514-3.256h-15.082l-4.627,6.513-8.569,8.4Zm5.656-12.168h7.2l1.371-10.969.171-2.057h-13.882l-1.028,6.17-1.714,6.855ZM-244.459,0h.343V-13.025h-12.34l.514,3.428q.857,5.656,3.171,7.627T-244.459,0Zm-6.684-13.025h7.027V-26.051H-258.17l.171,2.057,1.542,10.969ZM-111.634-104.2h7.37l.343-6.513v-6.513H-118.49l-.171,6.513-.514,6.513Zm.343-13.025h7.37v-6.513l-.171-6.513h-15.082l.514,6.513.171,6.513ZM-97.067-104.2h7.027l.343-6.513.171-6.513h-14.4v6.513l-.343,6.513Zm.343-13.025h7.2l-.171-6.513-.343-6.513h-14.054l.171,6.513v6.513ZM-16.11-104.2h7.027v-13.025H-23.137V-104.2Zm0-13.025h7.027v-13.025H-23.137v13.025ZM-2.057-104.2H4.97v-13.025H-9.083V-104.2Zm0-13.025H4.97v-13.025H-9.083v13.025ZM-16.11-130.254h7.027v-78.152H-23.137v78.152Zm14.054,0H4.97v-78.152H-9.083v78.152ZM-16.11-26.051h7.027V-104.2H-23.137v78.152Zm14.054,0H4.97V-104.2H-9.083v78.152ZM-19.881-2.228q6-2.571,8.141-7.027A23.051,23.051,0,0,0-9.6-19.367v-2.4L-11.14-20.4l-14.739,7.37-4.627,6.513-8.569,8.4ZM-11.14-20.4-9.6-21.766l.171-2.228.171-2.057H-23.137l-1.028,6.17-1.714,6.855ZM1.371-2.228l19.2,4.113L12-6.513,7.37-13.025-7.37-20.4l-1.542-1.371v2.4a26.4,26.4,0,0,0,1.542,9.6Q-5.827-5.827,1.371-2.228ZM-7.37-20.4,7.37-13.025,5.656-19.881l-1.028-6.17H-9.255l.171,2.057.171,2.228Zm-8.569-186.3h6.855l-.171-2.057-.171-2.228-1.542-1.371-14.911-7.37,1.714,6.855,1.2,6.17Zm4.97-5.656,1.542,1.371v-2.4q0-5.656-1.542-8.655t-8.741-8.484l-19.367-4.113,8.569,8.4,4.627,6.513Zm8.741,5.656H4.8l1.028-6.17,1.885-6.855L-7.2-212.348l-1.542,1.371-.171,2.228-.171,2.057Zm-4.97-5.656,14.911-7.37,4.627-6.513,8.569-8.4L1.542-230.515q-7.2,5.484-8.741,8.484t-1.542,8.655v2.4ZM117.633-41.818H232.119l-2.571-5.827-2.571-5.827H105.465l-2.571,5.827-2.571,5.827Zm0-11.654H226.978L224.407-59.3l-2.571-5.827H110.606L108.035-59.3l-2.571,5.827Zm-1.885-70.44,6,2.742,2.057-4.97q13.54-30.85,20.138-45.932t12.083-26.908l4.113-9.426H146.255L144.2-203.95q-3.771,8.055-9.94,22.623t-21.595,49.017l-2.571,6Zm11.826,5.313,5.656,2.742,2.742-6.341q13.711-31.364,19.881-44.989t9.255-20.823l1.885-4.456-3.428-7.712-3.428-8.227-4.113,9.426q-5.484,11.826-12.083,26.908T123.8-126.141l-2.057,4.97Zm90.835-4.97,5.827-2.571-2.057-4.627q-12.683-28.793-19.024-43.447t-13.368-29.907l-2.057-4.285H174.019l5.313,12.168q6,13.54,12.168,28.45t18.338,41.99l2.228,4.97ZM205.9-118.257l6.17-2.571-2.228-4.97q-12.168-27.079-18.338-41.99t-12.168-28.45l-5.313-12.168-3.771,8.055-3.256,7.884,1.885,4.456q3.256,7.37,9,21.423T197.5-120.656l2.228,5.142Zm-52.616-90.149h6.855l3.428-6,3.428-6.341H151.739L149-214.576l-2.742,6.17Zm5.827-12.34h7.884v-13.711h-9.255l-2.914,6.684-3.085,7.027Zm4.456,20.566,3.428,7.712,3.428-7.884,3.6-8.055-3.256-5.827-3.771-6.513-3.428,6.341-3.428,6Zm17.139-8.227h7.027l-2.742-6.17-2.742-6.17H166.992l3.771,6.513,3.256,5.827Zm-5.827-12.34h7.37l-3.085-7.027-2.914-6.684h-9.255v13.711ZM85.412-22.966l-5.656-2.571-.686,1.2L77.7-21.252l4.113,6.684,4.627,5.827,2.228-5.827L91.239-20.4Zm-3.6,8.4L77.7-21.252l.171-.171q-4.8,10.969-4.456,16.367t5.313,9.512l6,4.627L86.441-8.741Zm-7.884-13.54L68.1-30.678l-2.571,5.827-1.714,3.942,6.341,1.2L77.7-21.252l1.371-3.085.686-1.2Zm-3.771,8.4-6.341-1.2L63.3-20.4,48.736-6.855l7.2,1.371Q64.16-3.942,68.873-7.8t9-13.625l-.171.171Zm57.586-98.89-5.827-2.571-2.571,5.827-2.571,5.827,5.827,2.571,5.827,2.571L131-110.2l2.571-5.827ZM122.6-106.945l-5.827-2.571-2.4,5.827-2.571,5.656,5.656,2.571,5.827,2.571,2.571-5.827,2.571-5.656Zm-6.341-16.8-5.827-2.571-2.571,5.827-2.571,5.827,5.827,2.571,5.656,2.571,2.571-5.827,2.571-5.827Zm-5.142,11.654-5.827-2.571-2.571,5.827-2.571,5.656,5.827,2.571,5.827,2.571,2.571-5.656,2.4-5.827Zm6.341,16.625-5.656-2.571-2.571,5.827q-2.571,5.827-4.113,9.169t-9.6,21.68q-7.712,17.31-9.169,20.566t-4.028,9.255l-2.571,6,5.656,2.571L91.239-20.4l2.742-6q2.571-6,4.028-9.169t9.169-20.652q7.884-18,9.426-21.509t4.113-9.341l2.571-5.827ZM105.979-100.6l-5.827-2.571-2.571,5.827q-2.571,5.827-4.028,9.169T83.87-66.5q-7.541,17.31-9,20.566t-4.2,9.255l-2.571,6,5.827,2.571,5.827,2.571,2.571-6q2.571-6,4.028-9.169t9.169-20.652q7.884-18,9.512-21.509t4.2-9.341l2.571-5.827ZM259.884-27.593l-6,2.571.514,1.2,1.371,3.085,7.884,1.542,6.855-1.542L268.8-24.68l-2.571-5.656Zm3.771,8.4-7.884-1.542L257.313-18q3.771,8.4,8.741,12.683t11.826-.514l5.827-4.627L272.224-18.51l-1.714-2.228Zm-15.939-3.256-6,2.742,2.571,5.827,2.228,6,4.97-6,4.285-6.855L254.4-23.823l-.514-1.2Zm3.771,8.569-4.97,6L248.744,9.6l6-4.627q4.97-4.113,5.57-8.655T256.8-17.653l-1.028-3.085Zm-23.137-86.379-6.17,2.571,2.571,5.827q2.571,6,4.113,9.341t9.426,21.852q7.541,17.31,9,20.481t4.028,9.169l2.571,6,6.17-2.742,6.17-2.571-2.571-6q-2.742-6-4.113-9.169t-8.912-20.652q-7.884-18-9.426-21.509t-4.113-9.512L234.519-103ZM216.18-94.948l-6.17,2.742,2.571,5.656q2.571,6,4.028,9.426t9.512,21.766q7.541,17.31,8.912,20.481t4.113,9.169l2.571,6,6-2.742,6.17-2.571-2.571-6q-2.571-6-3.942-9.169t-9.083-20.481q-7.884-18.167-9.426-21.68t-4.113-9.512l-2.571-5.827Zm2.057-28.622-6.17,2.742L214.638-115l2.571,5.656,6.17-2.571,6-2.742-2.4-5.827-2.571-5.827Zm5.142,11.654-6.17,2.571,2.571,5.827,2.4,5.827,6.17-2.571,6.17-2.742-2.571-5.827-2.571-5.827ZM205.9-118.257l-6,2.742,2.571,5.827,2.4,5.827,6.17-2.742,6.17-2.742L214.638-115l-2.571-5.827Zm5.142,11.654-6.17,2.742,2.571,5.827,2.571,5.827,6.17-2.742,6-2.742-2.4-5.827-2.571-5.827Zm138.542-23.651h7.2v-72.839l-6.855-8.4-7.2-9.083v90.321Zm77.981-1.371,5.313-4.627-7.884-8.912Q410.252-161.1,395.6-178.328t-35.563-41.733l-12.168-14.4h-5.142v13.882l7.2,9.083q16.967,20.909,33.42,40.19t30.678,35.563l8.227,8.912ZM514.8,0h3.428V-13.882L510.17-23.994q-6-7.027-27.422-32.478T447.1-98.719l-7.712-8.741-5.313,4.627L428.762-98.2l7.712,8.741q14.739,16.453,29.136,33.506T500.915-14.4L513.084,0ZM510.17-23.994l8.055,10.112V-104.2H504.172v73.182ZM335.527-130.254h7.2v-90.321H328.672v90.321Zm81.237,8.055,5.484-4.627-8.227-8.912q-14.054-16.282-20.909-24.251T375.46-180.642l-18.681-22.452V-180.9q0-.086,7.712,8.655,10.455,12.168,17.653,20.995T403.4-126.655l8.227,9.083Zm87.407,77.467V-53.3l-7.712-8.912q-10.8-12.168-17.739-20.995t-20.995-24.765l-7.884-8.912-5.484,4.97-4.97,4.456,7.712,8.741q14.225,16.8,20.995,24.851T491.489-46.1l12.683,15.082Zm21.081,30.85h7.027V-104.2H518.225v90.321ZM335.7-220.575h7.027v-13.882H328.672v13.882ZM525.252,0h7.027V-13.882H518.225V0ZM331.928-2.228q6-2.571,8.141-7.027a23.051,23.051,0,0,0,2.142-10.112v-2.4L340.669-20.4l-14.739,7.37L321.3-6.513l-8.569,8.4ZM340.669-20.4l1.542-1.371.171-2.228.171-2.057H328.672l-1.028,6.17-1.714,6.855ZM353.18-2.228l19.2,4.113-8.569-8.4-4.627-6.513L344.439-20.4,342.9-21.766v2.4a26.4,26.4,0,0,0,1.542,9.6Q345.982-5.827,353.18-2.228ZM344.439-20.4l14.739,7.37-1.714-6.855-1.028-6.17H342.554l.171,2.057.171,2.228Zm166.931-186.3h6.855l-.171-2.057-.171-2.228-1.542-1.371-14.911-7.37,1.714,6.855,1.2,6.17Zm4.97-5.656,1.542,1.371v-2.4q0-5.656-1.542-8.655t-8.741-8.484l-19.367-4.113,8.569,8.4,4.627,6.513Zm8.741,5.656h7.027l1.028-6.17,1.885-6.855-14.911,7.37-1.542,1.371-.171,2.228-.171,2.057Zm-4.97-5.656,14.911-7.37,4.627-6.513,8.569-8.4-19.367,4.113q-7.2,5.484-8.741,8.484t-1.542,8.655v2.4ZM335.7-26.051h7.027V-104.2H328.672v78.152Zm14.054,0h7.027V-104.2H342.725v78.152ZM511.2-130.254h7.027v-78.152H504.172v78.152Zm14.054,0h7.027v-78.152H518.225v78.152ZM335.7-104.2h7.027v-13.025H328.672V-104.2Zm0-13.025h7.027v-13.025H328.672v13.025ZM349.752-104.2h7.027v-13.025H342.725V-104.2Zm0-13.025h7.027v-13.025H342.725v13.025ZM511.2-104.2h7.027v-13.025H504.172V-104.2Zm0-13.025h7.027v-13.025H504.172v13.025ZM525.252-104.2h7.027v-13.025H518.225V-104.2Zm0-13.025h7.027v-13.025H518.225v13.025Zm-91.178,14.4,5.313-4.627-4.285-4.8-4.285-4.97-5.313,4.627-5.313,4.8,4.456,4.8,4.285,4.8Zm-8.569-9.769,5.313-4.627-4.285-4.8L422.249-127l-5.313,4.627-5.313,4.8,4.285,4.8,4.285,4.97Zm19.2.514,5.313-4.627-4.456-4.97-4.285-4.8-5.142,4.627-5.313,4.627,4.285,4.97,4.285,4.8Zm-8.569-9.769,5.142-4.627-4.285-4.97-4.285-4.8-5.313,4.627L422.249-127l4.285,4.97,4.285,4.8ZM648.027,0h49.359V-13.025H641.171V0Zm0-13.025h49.359V-26.051H641.171v13.025Zm0-91.178h35.306v-13.025H641.171V-104.2Zm0-13.025h35.306v-13.025H641.171v13.025Zm0-91.178h49.359v-13.025H641.171v13.025Zm0-13.025h49.359v-13.025H641.171v13.025ZM620.091-104.2h7.027v-13.025H613.064V-104.2Zm0-13.025h7.027v-13.025H613.064v13.025ZM634.145-104.2h7.027v-13.025H627.118V-104.2Zm0-13.025h7.027v-13.025H627.118v13.025Zm-14.054-13.025h7.027v-78.152H613.064v78.152Zm14.054,0h7.027v-78.152H627.118v78.152Zm-14.054,104.2h7.027V-104.2H613.064v78.152Zm14.054,0h7.027V-104.2H627.118v78.152ZM620.091-206.692h6.855l-.171-2.057-1.2-10.969H610.322l1.714,6.855,1.028,6.17Zm-1.885-13.025h7.37l-.343-2.914a7.658,7.658,0,0,0-2.4-5.484q-2.228-2.057-10.283-3.771l-15.425-2.742,8.569,8.4,4.627,6.513Zm15.939,13.025h7.027v-13.025H628.146l-.857,10.969-.171,2.057Zm0-13.025h7.027v-13.025h-.343q-22.28-3.256-17.567.171a11.635,11.635,0,0,1,5.056,9.083l-.171,3.771ZM612.55-.857q8.055-1.714,9.855-3.513a10.137,10.137,0,0,0,2.485-5.4l.514-3.256H610.322l-4.627,6.513-8.569,8.4Zm5.656-12.168h7.2l1.371-10.969.171-2.057H613.064l-1.028,6.17-1.714,6.855ZM640.829,0h.343V-13.025h-12.34l.514,3.428q.857,5.656,3.171,7.627T640.829,0Zm-6.684-13.025h7.027V-26.051H627.118l.171,2.057,1.542,10.969ZM704.413,0h5.827V-12.34l-10.969-.686h-1.885V0Zm-6.17-13.025h1.028l10.969-1.885V-28.45l-5.827,1.885-7.027.514v13.025ZM718.467,0h4.97l.857-6.684q.514-4.113-5.4-4.8t-8.655-.857l-10.969-.686,10.969.686V0ZM710.24-14.911q5.484-1.2,7.712-2.828t3.942-7.627l3.6-17.481-8.4,9.769L710.24-28.45v13.54l-10.969,1.885ZM690.359-104.2h5.827v-12.34l-10.969-.686h-1.885V-104.2Zm-6.17-13.025h1.028l10.969-1.885v-13.54l-5.827,1.885-7.027.514v13.025ZM704.413-104.2h4.97l.857-6.684q.514-4.113-5.4-4.8t-8.655-.857l-10.969-.686,10.969.686v12.34Zm-8.227-14.911q5.484-1.2,7.712-2.828t3.942-7.627l3.6-17.481-8.4,9.769-6.855,4.627v13.54l-10.969,1.885Zm2.571-89.292h9.255v-6.513l-5.142-6.513h-5.484v13.025Zm0-13.025h4.113l5.142-7.2v-5.827H697.386v13.025Zm10.455,13.025,10.8,6,2.228-10.455q.857-3.942-1.628-6.256t-16.71-2.314h-1.028l5.142,6.513v6.513ZM703.9-221.432q13.2,0,16.367-1.885t5.056-7.027l5.313-16.11-13.025,12h-9.6v5.827l-5.142,7.2ZM684.7-104.2h9.255v-6.513l-5.142-6.513h-5.484V-104.2Zm0-13.025h4.113l5.142-7.2v-5.827H683.333v13.025ZM695.158-104.2l10.8,6,2.228-10.455q.857-3.942-1.628-6.256t-16.71-2.314h-1.028l5.142,6.513v6.513Zm-5.313-13.025q13.2,0,16.367-1.885t5.056-7.027l5.313-16.11-13.025,12h-9.6v5.827l-5.142,7.2Z" transform="translate(721.687 248.127)" fill="none" stroke="#306000" stroke-width="1"/>
</svg>
