<svg xmlns="http://www.w3.org/2000/svg" width="31.026" height="34.151" viewBox="0 0 31.026 34.151">
  <g id="Groupe_45" data-name="Groupe 45" transform="translate(-1774.154 -113.677)">
    <g id="Groupe_44" data-name="Groupe 44">
      <path id="Tracé_494" data-name="Tracé 494" d="M6657.154,217.9h29.026" transform="translate(-4882 -98)" fill="none" stroke="#455e24" stroke-linecap="round" stroke-width="2"/>
      <path id="Tracé_497" data-name="Tracé 497" d="M6677.956,217.9l3.623-3.48" transform="translate(-4882 -98)" fill="none" stroke="#455e24" stroke-linecap="round" stroke-width="2"/>
      <path id="Tracé_500" data-name="Tracé 500" d="M6662.622,217.9s-1.136-1.7,1.084-4.233,1.645.325,2.454,3.382" transform="translate(-4882 -98)" fill="none" stroke="#3d5f18" stroke-linecap="round" stroke-width="2"/>
    </g>
    <g id="Groupe_43" data-name="Groupe 43" transform="translate(0 -2)">
      <path id="Tracé_495" data-name="Tracé 495" d="M6657.154,217.9h29.026" transform="translate(-4882 -85)" fill="none" stroke="#455e24" stroke-linecap="round" stroke-width="2"/>
      <path id="Tracé_498" data-name="Tracé 498" d="M6667.807,231.723l-2.155,3.514" transform="translate(-4882 -98)" fill="none" stroke="#455e24" stroke-linecap="round" stroke-width="2"/>
      <path id="Tracé_501" data-name="Tracé 501" d="M6663.256,220.733s.065-4.607-.134-7.371,2.351-1.377,3.16,1.68" transform="matrix(0.469, 0.883, -0.883, 0.469, -1139.42, -5854.126)" fill="none" stroke="#3d5f18" stroke-linecap="round" stroke-width="2"/>
    </g>
    <g id="Groupe_42" data-name="Groupe 42" transform="translate(0 -4)">
      <path id="Tracé_496" data-name="Tracé 496" d="M6657.154,217.9h29.026" transform="translate(-4882 -72)" fill="none" stroke="#455e24" stroke-linecap="round" stroke-width="2"/>
      <path id="Tracé_499" data-name="Tracé 499" d="M6672.349,244.776l2.292,3.256" transform="translate(-4882.683 -98.871)" fill="none" stroke="#455e24" stroke-linecap="round" stroke-width="2"/>
      <path id="Tracé_502" data-name="Tracé 502" d="M6662.832,220.782s.454-6.074.289-7.916,2.96-1.192,3.631.846" transform="translate(4823.519 6080.52) rotate(-119)" fill="none" stroke="#3d5f18" stroke-linecap="round" stroke-width="2"/>
    </g>
  </g>
</svg>
