<svg xmlns="http://www.w3.org/2000/svg" width="1650.766" height="246.001" viewBox="0 0 1650.766 246.001">
  <path id="Tracé_536" data-name="Tracé 536" d="M-763.542,0h28.622q41.3,0,76.524-26.051t41.561-70.611l.686-7.541h-14.225l-.686,6.684q-6,37.362-36.248,60.928t-67.783,23.566h-35.134V0Zm0-13.025h28.45q37.534,0,67.783-23.566t36.248-60.928l.686-6.684h-14.911l-.686,6.17q-5.142,31.021-30.25,51.5t-62.128,20.481h-31.878v13.025Zm140.708-117.229h6.684l-.686-6.684q-5.656-42.847-38.562-70.183t-79.523-27.336h-35.306v13.025h35.134a103.619,103.619,0,0,1,67.1,23.823,102.415,102.415,0,0,1,36.934,60.842l.857,6.513Zm-14.568,0h7.2l-.857-6.513a102.415,102.415,0,0,0-36.934-60.842,103.619,103.619,0,0,0-67.1-23.823h-35.134v13.025h31.878q36.334,0,61.014,20.138t30.85,51.844l1.2,6.17ZM-791.306-104.2h7.027v-13.025h-14.054V-104.2Zm0-13.025h7.027v-13.025h-14.054v13.025Zm14.054,13.025h7.027v-13.025h-14.054V-104.2Zm0-13.025h7.027v-13.025h-14.054v13.025Zm-14.054-13.025h7.027v-78.152h-14.054v78.152Zm14.054,0h7.027v-78.152h-14.054v78.152Zm-14.054,104.2h7.027V-104.2h-14.054v78.152Zm14.054,0h7.027V-104.2h-14.054v78.152Zm-14.054-180.642h6.855l-.171-2.057-1.2-10.969h-15.253l1.714,6.855,1.028,6.17Zm-1.885-13.025h7.37l-.343-2.914a7.658,7.658,0,0,0-2.4-5.484q-2.228-2.057-10.283-3.771l-15.425-2.742,8.569,8.4,4.627,6.513Zm15.939,13.025h7.027v-13.025h-13.025l-.857,10.969-.171,2.057Zm0-13.025h7.027v-13.025h-.343q-22.28-3.256-17.567.171a11.635,11.635,0,0,1,5.056,9.083l-.171,3.771ZM-798.847-.857q8.055-1.714,9.855-3.513a10.137,10.137,0,0,0,2.485-5.4l.514-3.256h-15.082L-805.7-6.513l-8.569,8.4Zm5.656-12.168h7.2l1.371-10.969.171-2.057h-13.882l-1.028,6.17-1.714,6.855ZM-770.568,0h.343V-13.025h-12.34l.514,3.428q.857,5.656,3.171,7.627T-770.568,0Zm-6.684-13.025h7.027V-26.051h-14.054l.171,2.057,1.542,10.969ZM-637.744-104.2h7.37l.343-6.513v-6.513H-644.6l-.171,6.513-.514,6.513Zm.343-13.025h7.37v-6.513l-.171-6.513h-15.082l.514,6.513.171,6.513Zm14.225,13.025h7.027l.343-6.513.171-6.513h-14.4v6.513l-.343,6.513Zm.343-13.025h7.2l-.171-6.513-.343-6.513H-630.2l.171,6.513v6.513Zm105.465,75.41h114.486l-2.571-5.827-2.571-5.827H-529.537l-2.571,5.827-2.571,5.827Zm0-11.654h109.345l-2.571-5.827-2.571-5.827H-524.4l-2.571,5.827-2.571,5.827Zm-1.885-70.44,6,2.742,2.057-4.97q13.54-30.85,20.138-45.932t12.083-26.908l4.113-9.426h-13.882l-2.057,4.456q-3.771,8.055-9.94,22.623t-21.595,49.017l-2.571,6Zm11.826,5.313,5.656,2.742,2.742-6.341q13.711-31.364,19.881-44.989t9.255-20.823l1.885-4.456-3.428-7.712-3.428-8.227-4.113,9.426q-5.484,11.826-12.083,26.908T-511.2-126.141l-2.057,4.97Zm90.835-4.97,5.827-2.571-2.057-4.627q-12.683-28.793-19.024-43.447t-13.368-29.907l-2.057-4.285h-13.711l5.313,12.168q6,13.54,12.168,28.45t18.338,41.99l2.228,4.97Zm-12.511,5.313,6.17-2.571-2.228-4.97q-12.168-27.079-18.338-41.99t-12.168-28.45l-5.313-12.168-3.771,8.055-3.256,7.884,1.885,4.456q3.256,7.37,9,21.423t19.624,45.932l2.228,5.142Zm-52.616-90.149h6.855l3.428-6,3.428-6.341h-15.253l-2.742,6.17-2.742,6.17Zm5.827-12.34h7.884v-13.711h-9.255l-2.914,6.684-3.085,7.027Zm4.456,20.566,3.428,7.712,3.428-7.884,3.6-8.055-3.256-5.827-3.771-6.513-3.428,6.341-3.428,6Zm17.139-8.227h7.027l-2.742-6.17-2.742-6.17h-15.253l3.771,6.513,3.256,5.827Zm-5.827-12.34h7.37l-3.085-7.027-2.914-6.684h-9.255v13.711Zm-89.464,197.78-5.656-2.571-.686,1.2-1.371,3.085,4.113,6.684,4.627,5.827,2.228-5.827,2.571-5.827Zm-3.6,8.4-4.113-6.684.171-.171q-4.8,10.969-4.456,16.367t5.313,9.512l6,4.627,1.714-17.824Zm-7.884-13.54-5.827-2.571-2.571,5.827-1.714,3.942,6.341,1.2,7.541-1.542,1.371-3.085.686-1.2Zm-3.771,8.4-6.341-1.2-.514.514-14.568,13.54,7.2,1.371q8.227,1.542,12.94-2.314t9-13.625l-.171.171Zm57.586-98.89-5.827-2.571-2.571,5.827-2.571,5.827,5.827,2.571,5.827,2.571L-504-110.2l2.571-5.827Zm-5.142,11.654-5.827-2.571-2.4,5.827-2.571,5.656,5.656,2.571,5.827,2.571,2.571-5.827,2.571-5.656Zm-6.341-16.8-5.827-2.571-2.571,5.827-2.571,5.827,5.827,2.571,5.656,2.571,2.571-5.827,2.571-5.827Zm-5.142,11.654-5.827-2.571-2.571,5.827-2.571,5.656,5.827,2.571,5.827,2.571,2.571-5.656,2.4-5.827Zm6.341,16.625-5.656-2.571-2.571,5.827q-2.571,5.827-4.113,9.169t-9.6,21.68q-7.712,17.31-9.169,20.566t-4.028,9.255l-2.571,6,5.656,2.571,5.827,2.571,2.742-6q2.571-6,4.028-9.169t9.169-20.652q7.884-18,9.426-21.509t4.113-9.341l2.571-5.827Zm-11.483-5.142-5.827-2.571-2.571,5.827q-2.571,5.827-4.028,9.169t-9.683,21.68q-7.541,17.31-9,20.566t-4.2,9.255l-2.571,6,5.827,2.571,5.827,2.571,2.571-6q2.571-6,4.028-9.169t9.169-20.652q7.884-18,9.512-21.509t4.2-9.341l2.571-5.827Zm153.905,73.011-6,2.571.514,1.2,1.371,3.085,7.884,1.542,6.855-1.542-1.714-3.942-2.571-5.656Zm3.771,8.4-7.884-1.542L-377.688-18q3.771,8.4,8.741,12.683t11.826-.514l5.827-4.627-11.483-8.055-1.714-2.228Zm-15.939-3.256-6,2.742,2.571,5.827,2.228,6,4.97-6,4.285-6.855-1.371-3.085-.514-1.2Zm3.771,8.569-4.97,6L-386.258,9.6l6-4.627q4.97-4.113,5.57-8.655T-378.2-17.653l-1.028-3.085Zm-23.137-86.379-6.17,2.571,2.571,5.827q2.571,6,4.113,9.341t9.426,21.852q7.541,17.31,9,20.481t4.028,9.169l2.571,6,6.17-2.742,6.17-2.571-2.571-6q-2.742-6-4.113-9.169t-8.912-20.652q-7.884-18-9.426-21.509t-4.113-9.512L-400.483-103Zm-12.168,5.313-6.17,2.742,2.571,5.656q2.571,6,4.028,9.426t9.512,21.766q7.541,17.31,8.912,20.481t4.113,9.169l2.571,6,6-2.742,6.17-2.571-2.571-6q-2.571-6-3.942-9.169t-9.083-20.481q-7.884-18.167-9.426-21.68t-4.113-9.512l-2.571-5.827Zm2.057-28.622-6.17,2.742,2.571,5.827,2.571,5.656,6.17-2.571,6-2.742-2.4-5.827-2.571-5.827Zm5.142,11.654-6.17,2.571,2.571,5.827,2.4,5.827,6.17-2.571,6.17-2.742-2.571-5.827-2.571-5.827Zm-17.481-6.341-6,2.742,2.571,5.827,2.4,5.827,6.17-2.742,6.17-2.742L-420.364-115l-2.571-5.827Zm5.142,11.654-6.17,2.742,2.571,5.827,2.571,5.827,6.17-2.742,6-2.742-2.4-5.827-2.571-5.827Zm124.831-23.651h6.855v-91.178H-306.33v91.178Zm62.728,11.14,6-2.742-4.456-8.741q-6.684-13.711-12.168-24.423t-14.225-29.736q-4.285-9.255-8.4-17.739t-10.283-23.223l-3.771-8.741h-8.569v13.025l18.338,40.619q3.771,8.055,12.426,24.937T-247.03-125.8l4.456,9.769Zm85.865.343,6,2.742,8.569-17.653q2.4-5.142,10.712-22.109t12.083-25.022l18.338-38.048v-15.6h-8.569l-3.771,8.741q-6.17,14.739-10.283,23.223t-8.4,17.739q-8.741,19.024-13.882,29.821t-8.055,16.967l-8.227,16.625Zm62.556-11.483h7.2v-88.607H-94.839v88.607Zm-197.438,0h7.2v-60.157l-6.341-14.054-7.712-16.967v91.178Zm36.677,16.967,6.17-2.742-4.456-9.769q-5.827-13.2-14.311-29.736t-12.6-25.28l-4.285-9.6v28.793l3.942,9.426q1.542,3.256,5.827,12.254t9.426,19.967l4.285,9.426Zm41.476,87.236h7.2l-3.942-8.4q-14.054-29.821-16.882-35.734t-4.885-10.026l-6.17-13.2-5.827,2.742-6.341,2.914,6.17,12.168q1.542,3.428,2.4,5.142t8.055,16.625l12.854,27.765Zm10.455-8.055,3.256-7.884-3.085-7.2q-4.627-9.255-9.683-20.566t-7.284-15.939l-6.17-13.2-6,2.742-6.17,2.742,6.17,13.2q2.057,4.113,4.885,10.026t16.882,35.734l3.942,8.4Zm6.513,0,3.256,8.055,3.942-8.4q14.054-29.821,16.8-35.906t5.656-11.74l5.484-11.14-5.827-2.742-5.656-2.742-5.827,11.654q-3.256,6.513-8.312,17.567t-9.683,20.309l-3.085,7.2Zm10.455,8.055h7.2l13.025-27.765q7.2-14.911,7.969-16.8t2.314-5.313l5.656-12-5.827-2.571-5.656-2.742-5.484,11.14q-2.914,5.656-5.656,11.74t-16.8,35.906l-3.942,8.4Zm40.79-87.407,6,2.742,8.055-17.31q1.542-3.428,6.084-13.025t6.084-12.854l3.942-9.426v-26.394l-4.285,8.912q-4.113,8.741-12.254,25.365t-10.54,21.766l-8.569,17.653Zm37.362-16.8h6.855v-88.607l-7.027,14.568-7.027,14.568v59.471ZM-198.013,0h4.456V-13.711h-15.425l3.256,7.027L-202.812,0Zm-3.428-13.711h7.884l-3.428-6.513-3.085-5.827h-14.568l2.914,6.17,2.742,6.17ZM-189.1,0h4.8l2.914-6.684,3.085-7.027h-15.253V0Zm3.428-13.711h7.37l2.742-6.17,2.914-6.17h-14.4l-3.085,5.827-3.428,6.513Zm-7.884,0,6.513-12.34-3.256-8.055-3.256-7.884-3.256,7.884-3.256,8.055ZM-299.3-221.432h7.027v-13.025H-306.33v13.025Zm211.491,2.571h7.027v-15.6H-94.839v15.6ZM-303.073-2.228q6-2.571,8.141-7.027a23.051,23.051,0,0,0,2.142-10.112v-2.4l-1.542,1.371-14.739,7.37L-313.7-6.513l-8.569,8.4Zm8.741-18.167,1.542-1.371.171-2.228.171-2.057H-306.33l-1.028,6.17-1.714,6.855Zm12.511,18.167,19.2,4.113-8.569-8.4-4.627-6.513-14.739-7.37-1.542-1.371v2.4a26.4,26.4,0,0,0,1.542,9.6Q-289.02-5.827-281.821-2.228ZM-290.562-20.4l14.739,7.37-1.714-6.855-1.028-6.17h-13.882l.171,2.057.171,2.228ZM-299.3-104.2h7.027v-13.025H-306.33V-104.2Zm0-13.025h7.027v-13.025H-306.33v13.025Zm14.054,13.025h7.027v-13.025h-14.054V-104.2Zm0-13.025h7.027v-13.025h-14.054v13.025ZM-299.3-26.051h7.027V-104.2H-306.33v78.152Zm14.054,0h7.027V-104.2h-14.054v78.152ZM-105.636-2.228q6-2.571,8.141-7.027a23.051,23.051,0,0,0,2.142-10.112v-2.4L-96.9-20.4l-14.739,7.37-4.627,6.513-8.569,8.4ZM-96.9-20.4l1.542-1.371.171-2.228.171-2.057h-13.882l-1.028,6.17-1.714,6.855ZM-84.384-2.228l19.2,4.113-8.569-8.4-4.627-6.513L-93.125-20.4l-1.542-1.371v2.4a26.4,26.4,0,0,0,1.542,9.6Q-91.582-5.827-84.384-2.228ZM-93.125-20.4l14.739,7.37L-80.1-19.881l-1.028-6.17H-95.01l.171,2.057.171,2.228Zm-8.741-83.808h7.027v-13.025h-14.054V-104.2Zm0-13.025h7.027v-13.025h-14.054v13.025ZM-87.812-104.2h7.027v-13.025H-94.839V-104.2Zm0-13.025h7.027v-13.025H-94.839v13.025Zm-14.054,91.178h7.027V-104.2h-14.054v78.152Zm14.054,0h7.027V-104.2H-94.839v78.152ZM-237.946-90.492l6-2.742-2.571-5.827-2.742-5.656-6,2.742-6.17,2.914,2.742,5.656,2.742,5.827Zm-5.313-11.483,6-2.742L-240-110.544l-2.571-5.656-6,2.742-6.17,2.914,2.742,5.656,2.571,5.827Zm17.481,5.827,6-2.742-2.742-5.827-2.571-5.656-6.17,2.742-6,2.914,2.742,5.656,2.571,5.827Zm-5.484-11.483,6.17-2.742-2.742-5.827-2.571-5.656-6.17,2.742-6,2.914,2.571,5.656,2.742,5.827Zm70.269,11.826,5.656,2.742,2.742-5.827,2.742-5.656-5.827-2.742-5.656-2.742-2.742,5.827-2.742,5.827Zm5.313-11.483,5.827,2.742,2.571-5.827,2.742-5.656-5.827-2.742-5.656-2.742-2.742,5.827-2.571,5.656Zm6.17,16.8,5.656,2.742,2.742-5.656,2.742-5.827-5.827-2.742-5.656-2.571L-152.6-98.89l-2.742,5.827Zm5.313-11.483,5.827,2.742,2.571-5.827,2.742-5.656-5.827-2.742-5.656-2.571-2.742,5.656-2.571,5.827ZM7.027-104.2h7.027v-13.025H0V-104.2Zm0-13.025h7.027v-13.025H0v13.025ZM21.081-104.2h7.027v-13.025H14.054V-104.2Zm0-13.025h7.027v-13.025H14.054v13.025ZM7.027-130.254h7.027v-78.152H0v78.152Zm14.054,0h7.027v-78.152H14.054v78.152ZM7.027-26.051h7.027V-104.2H0v78.152Zm14.054,0h7.027V-104.2H14.054v78.152ZM3.256-2.228q6-2.571,8.141-7.027A23.051,23.051,0,0,0,13.54-19.367v-2.4L12-20.4l-14.739,7.37L-7.37-6.513l-8.569,8.4ZM12-20.4l1.542-1.371.171-2.228.171-2.057H0l-1.028,6.17-1.714,6.855ZM24.508-2.228,43.7,1.885l-8.569-8.4-4.627-6.513L15.768-20.4l-1.542-1.371v2.4a26.4,26.4,0,0,0,1.542,9.6Q17.31-5.827,24.508-2.228ZM15.768-20.4l14.739,7.37-1.714-6.855-1.028-6.17H13.882l.171,2.057.171,2.228ZM7.2-206.692h6.855l-.171-2.057-.171-2.228-1.542-1.371-14.911-7.37,1.714,6.855,1.2,6.17Zm4.97-5.656,1.542,1.371v-2.4q0-5.656-1.542-8.655t-8.741-8.484l-19.367-4.113,8.569,8.4,4.627,6.513Zm8.741,5.656h7.027l1.028-6.17,1.885-6.855-14.911,7.37L14.4-210.977l-.171,2.228-.171,2.057Zm-4.97-5.656,14.911-7.37,4.627-6.513,8.569-8.4L24.68-230.515q-7.2,5.484-8.741,8.484T14.4-213.376v2.4ZM140.77-41.818H255.257l-2.571-5.827-2.571-5.827H128.6l-2.571,5.827-2.571,5.827Zm0-11.654H250.115L247.544-59.3l-2.571-5.827H133.743L131.173-59.3,128.6-53.473Zm-1.885-70.44,6,2.742,2.057-4.97q13.54-30.85,20.138-45.932t12.083-26.908l4.113-9.426H169.392l-2.057,4.456q-3.771,8.055-9.94,22.623T135.8-132.311l-2.571,6Zm11.826,5.313,5.656,2.742,2.742-6.341q13.711-31.364,19.881-44.989t9.255-20.823l1.885-4.456L186.7-200.18l-3.428-8.227-4.113,9.426q-5.484,11.826-12.083,26.908T146.94-126.141l-2.057,4.97Zm90.835-4.97,5.827-2.571-2.057-4.627q-12.683-28.793-19.024-43.447t-13.368-29.907l-2.057-4.285H197.156l5.313,12.168q6,13.54,12.168,28.45t18.338,41.99l2.228,4.97Zm-12.511,5.313,6.17-2.571-2.228-4.97q-12.168-27.079-18.338-41.99t-12.168-28.45l-5.313-12.168-3.771,8.055-3.256,7.884,1.885,4.456q3.256,7.37,9,21.423t19.624,45.932l2.228,5.142Zm-52.616-90.149h6.855l3.428-6,3.428-6.341H174.876l-2.742,6.17-2.742,6.17Zm5.827-12.34h7.884v-13.711h-9.255l-2.914,6.684-3.085,7.027ZM186.7-200.18l3.428,7.712,3.428-7.884,3.6-8.055-3.256-5.827-3.771-6.513L186.7-214.4l-3.428,6Zm17.139-8.227h7.027l-2.742-6.17-2.742-6.17H190.13l3.771,6.513,3.256,5.827Zm-5.827-12.34h7.37l-3.085-7.027-2.914-6.684H190.13v13.711ZM108.549-22.966l-5.656-2.571-.686,1.2-1.371,3.085,4.113,6.684,4.627,5.827,2.228-5.827,2.571-5.827Zm-3.6,8.4-4.113-6.684.171-.171q-4.8,10.969-4.456,16.367t5.313,9.512l6,4.627,1.714-17.824Zm-7.884-13.54-5.827-2.571-2.571,5.827-1.714,3.942,6.341,1.2,7.541-1.542,1.371-3.085.686-1.2Zm-3.771,8.4-6.341-1.2-.514.514L71.873-6.855l7.2,1.371Q87.3-3.942,92.011-7.8t9-13.625l-.171.171Zm57.586-98.89-5.827-2.571-2.571,5.827-2.571,5.827,5.827,2.571,5.827,2.571,2.571-5.827,2.571-5.827Zm-5.142,11.654-5.827-2.571-2.4,5.827-2.571,5.656,5.656,2.571,5.827,2.571L149-98.719l2.571-5.656Zm-6.341-16.8-5.827-2.571L131-120.485l-2.571,5.827,5.827,2.571,5.656,2.571,2.571-5.827,2.571-5.827Zm-5.142,11.654-5.827-2.571-2.571,5.827-2.571,5.656,5.827,2.571,5.827,2.571,2.571-5.656,2.4-5.827ZM140.6-95.462l-5.656-2.571-2.571,5.827q-2.571,5.827-4.113,9.169t-9.6,21.68q-7.712,17.31-9.169,20.566t-4.028,9.255l-2.571,6,5.656,2.571,5.827,2.571,2.742-6q2.571-6,4.028-9.169t9.169-20.652q7.884-18,9.426-21.509t4.113-9.341l2.571-5.827ZM129.116-100.6l-5.827-2.571-2.571,5.827q-2.571,5.827-4.028,9.169T107.007-66.5q-7.541,17.31-9,20.566t-4.2,9.255l-2.571,6,5.827,2.571,5.827,2.571,2.571-6q2.571-6,4.028-9.169t9.169-20.652q7.884-18,9.512-21.509t4.2-9.341l2.571-5.827ZM283.021-27.593l-6,2.571.514,1.2,1.371,3.085,7.884,1.542,6.855-1.542-1.714-3.942-2.571-5.656Zm3.771,8.4-7.884-1.542L280.45-18q3.771,8.4,8.741,12.683t11.826-.514l5.827-4.627L295.361-18.51l-1.714-2.228Zm-15.939-3.256-6,2.742,2.571,5.827,2.228,6,4.97-6,4.285-6.855-1.371-3.085-.514-1.2Zm3.771,8.569-4.97,6L271.881,9.6l6-4.627q4.97-4.113,5.57-8.655t-3.513-13.968l-1.028-3.085Zm-23.137-86.379-6.17,2.571,2.571,5.827q2.571,6,4.113,9.341t9.426,21.852q7.541,17.31,9,20.481t4.028,9.169l2.571,6,6.17-2.742,6.17-2.571-2.571-6q-2.742-6-4.113-9.169t-8.912-20.652q-7.884-18-9.426-21.509t-4.113-9.512L257.656-103Zm-12.168,5.313-6.17,2.742,2.571,5.656q2.571,6,4.028,9.426t9.512,21.766q7.541,17.31,8.912,20.481t4.113,9.169l2.571,6,6-2.742,6.17-2.571-2.571-6q-2.571-6-3.942-9.169t-9.083-20.481Q253.543-78.838,252-82.351t-4.113-9.512l-2.571-5.827Zm2.057-28.622-6.17,2.742L237.775-115l2.571,5.656,6.17-2.571,6-2.742-2.4-5.827-2.571-5.827Zm5.142,11.654-6.17,2.571,2.571,5.827,2.4,5.827,6.17-2.571,6.17-2.742-2.571-5.827-2.571-5.827Zm-17.481-6.341-6,2.742,2.571,5.827,2.4,5.827,6.17-2.742,6.17-2.742L237.775-115l-2.571-5.827Zm5.142,11.654-6.17,2.742,2.571,5.827,2.571,5.827,6.17-2.742,6-2.742-2.4-5.827-2.571-5.827Zm138.542-23.651h7.2v-72.839l-6.855-8.4-7.2-9.083v90.321Zm77.981-1.371,5.313-4.627-7.884-8.912q-14.739-15.939-29.393-33.163t-35.563-41.733L371-234.457h-5.142v13.882l7.2,9.083q16.967,20.909,33.42,40.19t30.678,35.563l8.227,8.912ZM537.935,0h3.428V-13.882l-8.055-10.112q-6-7.027-27.422-32.478T470.237-98.719l-7.712-8.741-5.313,4.627L451.9-98.2l7.712,8.741q14.739,16.453,29.136,33.506T524.053-14.4L536.221,0Zm-4.627-23.994,8.055,10.112V-104.2H527.309v73.182ZM358.664-130.254h7.2v-90.321H351.809v90.321ZM439.9-122.2l5.484-4.627-8.227-8.912Q423.106-152.02,416.25-159.99T398.6-180.642l-18.681-22.452V-180.9q0-.086,7.712,8.655,10.455,12.168,17.653,20.995t21.252,24.594l8.227,9.083Zm87.407,77.467V-53.3L519.6-62.213q-10.8-12.168-17.739-20.995t-20.995-24.765l-7.884-8.912-5.484,4.97-4.97,4.456,7.712,8.741q14.225,16.8,20.995,24.851T514.626-46.1l12.683,15.082Zm21.081,30.85h7.027V-104.2H541.363v90.321ZM358.836-220.575h7.027v-13.882H351.809v13.882ZM548.389,0h7.027V-13.882H541.363V0ZM355.065-2.228q6-2.571,8.141-7.027a23.051,23.051,0,0,0,2.142-10.112v-2.4L363.806-20.4l-14.739,7.37-4.627,6.513-8.569,8.4ZM363.806-20.4l1.542-1.371.171-2.228.171-2.057H351.809l-1.028,6.17-1.714,6.855ZM376.317-2.228l19.2,4.113-8.569-8.4-4.627-6.513L367.576-20.4l-1.542-1.371v2.4a26.4,26.4,0,0,0,1.542,9.6Q369.119-5.827,376.317-2.228ZM367.576-20.4l14.739,7.37L380.6-19.881l-1.028-6.17H365.691l.171,2.057.171,2.228Zm166.931-186.3h6.855l-.171-2.057-.171-2.228-1.542-1.371-14.911-7.37,1.714,6.855,1.2,6.17Zm4.97-5.656,1.542,1.371v-2.4q0-5.656-1.542-8.655t-8.741-8.484l-19.367-4.113,8.569,8.4,4.627,6.513Zm8.741,5.656h7.027l1.028-6.17,1.885-6.855-14.911,7.37-1.542,1.371-.171,2.228-.171,2.057Zm-4.97-5.656,14.911-7.37,4.627-6.513,8.569-8.4-19.367,4.113q-7.2,5.484-8.741,8.484t-1.542,8.655v2.4ZM358.836-26.051h7.027V-104.2H351.809v78.152Zm14.054,0h7.027V-104.2H365.863v78.152Zm161.446-104.2h7.027v-78.152H527.309v78.152Zm14.054,0h7.027v-78.152H541.363v78.152ZM358.836-104.2h7.027v-13.025H351.809V-104.2Zm0-13.025h7.027v-13.025H351.809v13.025ZM372.889-104.2h7.027v-13.025H365.863V-104.2Zm0-13.025h7.027v-13.025H365.863v13.025ZM534.336-104.2h7.027v-13.025H527.309V-104.2Zm0-13.025h7.027v-13.025H527.309v13.025ZM548.389-104.2h7.027v-13.025H541.363V-104.2Zm0-13.025h7.027v-13.025H541.363v13.025Zm-91.178,14.4,5.313-4.627-4.285-4.8-4.285-4.97-5.313,4.627-5.313,4.8,4.456,4.8,4.285,4.8Zm-8.569-9.769,5.313-4.627-4.285-4.8L445.386-127l-5.313,4.627-5.313,4.8,4.285,4.8,4.285,4.97Zm19.2.514,5.313-4.627-4.456-4.97-4.285-4.8-5.142,4.627-5.313,4.627,4.285,4.97,4.285,4.8Zm-8.569-9.769,5.142-4.627-4.285-4.97-4.285-4.8-5.313,4.627L445.386-127l4.285,4.97,4.285,4.8ZM668.079-41.818H782.565l-2.571-5.827-2.571-5.827H655.911l-2.571,5.827-2.571,5.827Zm0-11.654H777.424L774.853-59.3l-2.571-5.827H661.052L658.482-59.3l-2.571,5.827Zm-1.885-70.44,6,2.742,2.057-4.97q13.54-30.85,20.138-45.932T706.47-198.98l4.113-9.426H696.7l-2.057,4.456q-3.771,8.055-9.94,22.623t-21.595,49.017l-2.571,6ZM678.02-118.6l5.656,2.742,2.742-6.341q13.711-31.364,19.881-44.989t9.255-20.823l1.885-4.456-3.428-7.712-3.428-8.227-4.113,9.426q-5.484,11.826-12.083,26.908t-20.138,45.932l-2.057,4.97Zm90.835-4.97,5.827-2.571-2.057-4.627q-12.683-28.793-19.024-43.447t-13.368-29.907l-2.057-4.285H724.465l5.313,12.168q6,13.54,12.168,28.45t18.338,41.99l2.228,4.97Zm-12.511,5.313,6.17-2.571-2.228-4.97q-12.168-27.079-18.338-41.99t-12.168-28.45l-5.313-12.168-3.771,8.055-3.256,7.884,1.885,4.456q3.256,7.37,9,21.423t19.624,45.932l2.228,5.142Zm-52.616-90.149h6.855l3.428-6,3.428-6.341H702.185l-2.742,6.17-2.742,6.17Zm5.827-12.34h7.884v-13.711h-9.255l-2.914,6.684-3.085,7.027Zm4.456,20.566,3.428,7.712,3.428-7.884,3.6-8.055-3.256-5.827-3.771-6.513-3.428,6.341-3.428,6Zm17.139-8.227h7.027l-2.742-6.17-2.742-6.17H717.439l3.771,6.513,3.256,5.827Zm-5.827-12.34h7.37l-3.085-7.027-2.914-6.684h-9.255v13.711ZM635.858-22.966,630.2-25.537l-.686,1.2-1.371,3.085,4.113,6.684,4.627,5.827,2.228-5.827,2.571-5.827Zm-3.6,8.4-4.113-6.684.171-.171q-4.8,10.969-4.456,16.367t5.313,9.512l6,4.627,1.714-17.824Zm-7.884-13.54-5.827-2.571-2.571,5.827-1.714,3.942,6.341,1.2,7.541-1.542,1.371-3.085.686-1.2Zm-3.771,8.4-6.341-1.2-.514.514L599.182-6.855l7.2,1.371q8.227,1.542,12.94-2.314t9-13.625l-.171.171Zm57.586-98.89-5.827-2.571-2.571,5.827-2.571,5.827,5.827,2.571,5.827,2.571,2.571-5.827,2.571-5.827Zm-5.142,11.654-5.827-2.571-2.4,5.827-2.571,5.656,5.656,2.571,5.827,2.571,2.571-5.827,2.571-5.656Zm-6.341-16.8-5.827-2.571-2.571,5.827-2.571,5.827,5.827,2.571,5.656,2.571,2.571-5.827,2.571-5.827Zm-5.142,11.654-5.827-2.571-2.571,5.827-2.571,5.656,5.827,2.571,5.827,2.571,2.571-5.656,2.4-5.827Zm6.341,16.625-5.656-2.571-2.571,5.827q-2.571,5.827-4.113,9.169t-9.6,21.68q-7.712,17.31-9.169,20.566t-4.028,9.255l-2.571,6,5.656,2.571,5.827,2.571,2.742-6q2.571-6,4.028-9.169t9.169-20.652q7.884-18,9.426-21.509t4.113-9.341l2.571-5.827ZM656.425-100.6l-5.827-2.571-2.571,5.827q-2.571,5.827-4.028,9.169T634.316-66.5q-7.541,17.31-9,20.566t-4.2,9.255l-2.571,6,5.827,2.571,5.827,2.571,2.571-6q2.571-6,4.028-9.169t9.169-20.652q7.884-18,9.512-21.509t4.2-9.341l2.571-5.827ZM810.33-27.593l-6,2.571.514,1.2,1.371,3.085L814.1-19.2l6.855-1.542-1.714-3.942-2.571-5.656Zm3.771,8.4-7.884-1.542L807.759-18Q811.53-9.6,816.5-5.313t11.826-.514l5.827-4.627L822.67-18.51l-1.714-2.228Zm-15.939-3.256-6,2.742,2.571,5.827,2.228,6,4.97-6,4.285-6.855-1.371-3.085-.514-1.2Zm3.771,8.569-4.97,6L799.19,9.6l6-4.627q4.97-4.113,5.57-8.655t-3.513-13.968l-1.028-3.085Zm-23.137-86.379-6.17,2.571,2.571,5.827q2.571,6,4.113,9.341t9.426,21.852q7.541,17.31,9,20.481t4.028,9.169l2.571,6,6.17-2.742,6.17-2.571-2.571-6q-2.742-6-4.113-9.169t-8.912-20.652q-7.884-18-9.426-21.509t-4.113-9.512L784.965-103Zm-12.168,5.313-6.17,2.742,2.571,5.656q2.571,6,4.028,9.426t9.512,21.766q7.541,17.31,8.912,20.481t4.113,9.169l2.571,6,6-2.742,6.17-2.571-2.571-6q-2.571-6-3.942-9.169t-9.083-20.481q-7.884-18.167-9.426-21.68T775.2-91.863l-2.571-5.827Zm2.057-28.622-6.17,2.742L765.084-115l2.571,5.656,6.17-2.571,6-2.742-2.4-5.827-2.571-5.827Zm5.142,11.654-6.17,2.571,2.571,5.827,2.4,5.827,6.17-2.571,6.17-2.742-2.571-5.827-2.571-5.827Zm-17.481-6.341-6,2.742,2.571,5.827,2.4,5.827,6.17-2.742,6.17-2.742L765.084-115l-2.571-5.827Zm5.142,11.654-6.17,2.742,2.571,5.827,2.571,5.827,6.17-2.742,6-2.742-2.4-5.827-2.571-5.827Z" transform="translate(815.777 235.475)" fill="none" stroke="#306000" stroke-width="1"/>
</svg>
